<svg width="39" height="39" viewBox="0 0 39 39" fill="none" xmlns="http://www.w3.org/2000/svg">
<path d="M20.7608 5.46592C20.0627 4.76787 18.9309 4.76787 18.233 5.46592L3.71961 19.9792C3.085 20.6137 3.085 21.6427 3.71961 22.2773C4.35421 22.9118 5.38311 22.9118 6.0177 22.2773L19.4969 8.79816L32.976 22.2773C33.6107 22.9118 34.6395 22.9118 35.2742 22.2773C35.9088 21.6427 35.9088 20.6137 35.2742 19.9792L20.7608 5.46592Z" fill="#512B2B"/>
<path d="M32.2152 34.1274V24.4244C32.2152 24.2089 32.1297 24.0024 31.9775 23.85L20.0747 11.9412C19.7573 11.6238 19.2428 11.6237 18.9255 11.9411L7.01653 23.85C6.86417 24.0022 6.77856 24.2089 6.77856 24.4244V34.1274H16.3173V25.8949C16.3173 25.446 16.681 25.0824 17.1298 25.0824H21.8639C22.3128 25.0824 22.6764 25.446 22.6764 25.8949V34.1274H32.2152Z" fill="#512B2B"/>
</svg>
